<svg id="erCvZeLPK8N1" xmlns="http://www.w3.org/2000/svg" xmlns:xlink="http://www.w3.org/1999/xlink" viewBox="0 0 300 300" shape-rendering="geometricPrecision" text-rendering="geometricPrecision" project-id="ce917a8220ef4a35a6dea9a2d5e1e064" export-id="8893829d37c94d7b91e1ad121cbec192" cached="false"><g transform="matrix(1.425588 0 0 1.425588-64.272631-62.961727)"><path d="M44.833651,150L91.686283,69.451387v26.212117q0,20.360154,12.127191,35.2061q3.872487,4.259735,45.884477,47.544232c10.269939,8.551537,10.571988,13.969066,10.571989,20.248944q-.000001,7.937897,0,32.042888c0,5.636498-4.047543,8.265988-10.571989,8.265988-5.574948,0-9.694029-3.204955-9.694029-8.841453q0-9.29397,0-35.644877L91.686283,145.485711v85.219957L44.833651,150Z" transform="translate(0 0.000003)" fill="#1eacf4" stroke="#1eacf4" stroke-width="0.6"/><path d="M48.420445,141.490502L91.686284,68.187335l-.000001,27.476169q0,20.360154,12.127191,35.2061q3.872487,4.259735,45.956361,47.26641c4.477114,4.617779,10.500104,14.702483,10.500104,21.772172q.055661,9.279483-.000001,23.329436c0,5.636498-1.805372,8.454166-8.329818,8.454166-5.574948,0-8.265162-2.817669-8.265162-8.454167q0-9.29397.000002-26.949263l-48.60183-47.89655-.000004,72.728309-46.652681-79.629615Z" transform="matrix(-1 0 0-1 303.94491 291.490502)" fill="#fff" stroke="#fff" stroke-width="0.6"/></g></svg>
