<svg id="svg" version="1.1" xmlns="http://www.w3.org/2000/svg" xmlns:xlink="http://www.w3.org/1999/xlink" width="400" height="412.59411362080766" viewBox="0, 0, 400,412.59411362080766"><g id="svgg"><path id="path0" d="M161.944 0.185 C 159.306 0.315,154.103 0.853,153.575 1.050 C 153.156 1.207,158.457 12.466,192.287 83.266 C 213.846 128.385,231.576 165.247,231.687 165.182 C 231.799 165.117,231.809 165.275,231.709 165.534 C 231.577 165.878,231.626 165.944,231.892 165.779 C 232.114 165.642,232.188 165.662,232.084 165.831 C 231.990 165.983,232.156 166.582,232.452 167.163 C 232.749 167.744,232.995 168.040,232.999 167.820 C 233.004 167.559,240.352 164.044,254.149 157.702 C 265.777 152.357,275.938 147.663,276.728 147.272 C 277.519 146.880,278.166 146.640,278.166 146.739 C 278.166 146.837,278.353 147.157,278.582 147.449 C 278.811 147.742,278.454 146.872,277.789 145.517 C 277.124 144.162,271.531 132.704,265.360 120.055 C 235.758 59.380,221.242 29.992,219.310 26.831 C 209.432 10.663,193.024 1.701,170.705 0.281 C 166.503 0.013,165.615 0.004,161.944 0.185 M70.764 165.780 C 34.479 244.915,4.394 310.768,3.908 312.118 C -0.530 324.460,-1.115 339.360,2.313 352.734 C 8.892 378.407,32.476 403.866,55.724 410.394 C 62.660 412.341,74.959 413.189,80.356 412.091 C 81.259 411.907,82.132 411.740,82.295 411.719 C 82.458 411.698,82.592 411.530,82.592 411.345 C 82.592 411.160,90.189 394.248,99.475 373.764 C 117.679 333.607,116.608 336.048,115.811 336.545 C 115.510 336.733,115.264 337.043,115.264 337.232 C 115.264 337.422,115.171 337.557,115.058 337.534 C 114.625 337.442,113.895 337.927,113.895 338.307 C 113.895 338.526,113.789 338.639,113.660 338.560 C 113.532 338.480,112.886 338.873,112.226 339.433 C 111.565 339.993,110.798 340.637,110.520 340.862 C 110.243 341.088,109.796 341.458,109.527 341.684 C 109.259 341.910,108.631 342.402,108.132 342.779 C 107.634 343.155,106.951 343.714,106.614 344.020 C 106.278 344.326,105.603 344.880,105.114 345.252 C 104.626 345.623,102.517 347.308,100.430 348.994 C 92.480 355.417,87.621 357.824,80.923 358.656 C 66.631 360.432,54.572 345.636,57.060 329.374 C 57.613 325.756,60.638 318.164,80.356 270.910 C 96.515 232.184,137.428 135.693,137.610 135.877 C 137.642 135.908,144.584 151.261,153.037 169.995 C 161.490 188.728,168.831 204.962,169.350 206.072 C 169.869 207.181,170.294 208.147,170.294 208.219 C 170.294 208.513,172.311 212.457,172.460 212.454 C 172.549 212.451,178.608 199.238,185.924 183.090 L 199.226 153.730 198.807 152.583 C 198.577 151.952,198.270 151.509,198.125 151.599 C 197.980 151.688,197.939 151.637,198.033 151.484 C 198.220 151.182,137.367 22.107,136.976 21.976 C 136.844 21.932,107.049 86.644,70.764 165.780 " stroke="none" fill="#8796c4" fill-rule="evenodd"></path><path id="path1" d="M277.805 146.662 C 277.726 146.785,267.608 151.506,255.318 157.153 C 235.542 166.240,232.988 167.483,233.093 167.967 C 233.329 169.054,235.764 174.210,259.607 224.093 C 272.922 251.951,297.914 304.246,315.146 340.305 C 345.578 403.989,346.518 405.911,347.982 407.411 C 349.663 409.134,351.043 409.936,353.369 410.542 C 355.735 411.158,388.984 411.150,391.387 410.532 C 397.313 409.008,401.131 402.648,399.632 396.798 C 399.216 395.174,387.473 370.877,330.386 253.525 C 276.967 143.712,278.151 146.118,277.805 146.662 M185.910 183.094 C 178.628 199.168,172.571 212.360,172.450 212.408 C 172.329 212.457,172.344 212.703,172.484 212.956 C 172.623 213.209,173.742 215.695,174.970 218.480 C 180.515 231.056,186.038 243.080,186.742 244.105 C 189.946 248.776,197.250 250.355,202.053 247.414 C 203.680 246.419,224.835 229.999,226.229 228.650 C 228.814 226.149,230.110 222.090,229.459 218.529 C 229.192 217.071,226.596 211.348,216.644 190.281 C 209.779 175.749,203.103 161.613,201.808 158.866 C 200.512 156.119,199.385 153.870,199.301 153.869 C 199.218 153.868,193.192 167.019,185.910 183.094 M186.585 279.157 C 139.293 317.491,121.557 331.897,120.896 332.512 C 120.735 332.663,120.145 333.127,119.586 333.545 C 119.026 333.963,118.167 334.671,117.677 335.119 C 117.186 335.568,116.688 335.934,116.571 335.934 C 116.454 335.934,116.359 336.066,116.359 336.226 C 116.359 336.469,84.718 406.492,82.829 410.430 L 82.226 411.688 83.070 411.625 C 96.300 410.631,118.865 399.744,134.154 386.977 C 141.060 381.210,219.145 317.317,219.287 317.317 C 219.377 317.317,227.878 335.459,238.179 357.632 C 262.480 409.938,260.526 405.882,262.221 407.550 C 263.720 409.026,265.844 410.212,267.793 410.661 C 269.419 411.036,305.256 411.036,306.882 410.661 C 312.870 409.281,316.842 403.054,315.572 397.039 C 315.142 395.007,237.364 239.038,236.683 238.843 C 236.535 238.801,213.990 256.942,186.585 279.157 " stroke="none" fill="#51d3d5" fill-rule="evenodd"></path></g></svg>